<?xml version="1.0" ?><svg viewBox="0 0 24 24" xmlns="http://www.w3.org/2000/svg"><defs><style>.cls-1{fill:#0a7719;}.cls-2{fill:#09350d;}</style></defs><title/><g data-name="Layer 20" id="Layer_20"><path class="cls-1" d="M10,6A1,1,0,1,1,9,5,1,1,0,0,1,10,6Zm0,2.83a3,3,0,1,0-2,0V16a5,5,0,0,0,10,0V11.73l-3.16,1.9A1,1,0,0,0,14.5,15h0a1,1,0,0,0,1.37.34l.13-.07V16a3,3,0,0,1-6,0Z"/><path class="cls-2" d="M19,10a2.06,2.06,0,0,0-1-.26A2,2,0,0,0,17,10l-3.16,1.89a3,3,0,0,0-1,4.12,3.06,3.06,0,0,0,.74.82A.93.93,0,0,1,13,17a1,1,0,0,1-1-1V10a5,5,0,1,0-6,0v6a7,7,0,0,0,14,0V11.73A2,2,0,0,0,19,10Zm-1,6A5,5,0,0,1,8,16V8.83a3,3,0,1,1,2,0V16a3,3,0,0,0,6,0v-.73l-.13.07a1,1,0,0,1-.51.15A1,1,0,0,1,14.5,15a1,1,0,0,1,.34-1.37L18,11.73Z"/></g></svg>